<svg width="70" height="65" viewBox="0 0 70 65" fill="none" xmlns="http://www.w3.org/2000/svg">
<g clip-path="url(#clip0_1243_55215)">
<path d="M65.4433 24.0865L66.4781 22.3324C66.7537 21.8654 66.5741 21.2769 66.0769 21.0182C65.663 20.8026 65.1605 20.8844 64.8445 21.1868C60.3341 8.60657 47.7393 0.00390625 33.4117 0.00390625C24.5512 0.00390625 16.2211 3.24542 9.95593 9.13149C3.69061 15.0176 0.240234 22.8433 0.240234 31.1674C0.240234 38.2523 2.70679 44.9288 7.37302 50.475C11.8987 55.8541 18.2678 59.7312 25.307 61.392C26.8181 61.7486 28.3836 61.9694 30.093 62.067C30.1143 62.0682 30.1354 62.0688 30.1564 62.0688C30.6964 62.0688 31.1494 61.6737 31.1826 61.1606C31.2171 60.6276 30.7853 60.1695 30.2179 60.137C28.637 60.0467 27.1947 59.8439 25.8084 59.5167C11.9661 56.2505 2.29844 44.593 2.29844 31.1674C2.29844 15.05 16.2558 1.93752 33.4117 1.93752C46.8085 1.93752 58.5903 9.95547 62.8545 21.6939C62.4339 21.6243 61.9947 21.8064 61.7761 22.1767C61.5006 22.6436 61.6802 23.2322 62.1772 23.4909L64.0153 24.4482C64.07 24.4789 64.4264 24.6711 64.8568 24.5418C65.2327 24.4292 65.4065 24.1493 65.4433 24.0865Z" fill="#D3CDBF"/>
<path d="M50.9176 10.1013L11.1256 47.4846C10.7237 47.8623 10.7237 48.4744 11.1256 48.852C11.3265 49.0407 11.59 49.135 11.8533 49.135C12.1166 49.135 12.3801 49.0407 12.5809 48.852L52.3729 11.4687C52.7748 11.091 52.7748 10.4789 52.3729 10.1013C51.971 9.72403 51.3194 9.72403 50.9176 10.1013Z" fill="#D3CDBF"/>
<path d="M13.4097 16.4355C9.19093 16.4355 7.75745 21.5944 9.98196 21.5944C10.55 21.5944 11.0111 21.162 11.0111 20.6276C11.0111 19.3851 12.0871 18.3743 13.4096 18.3743C15.616 18.3743 16.6522 20.9587 14.9849 22.327L9.30207 26.9921C8.58828 27.5781 9.03093 28.6868 9.97922 28.6868H16.8399C17.4082 28.6868 17.869 28.2491 17.869 27.715C17.869 27.1809 17.4082 26.7482 16.8399 26.7482H12.7309L16.3425 23.787C19.4335 21.2527 17.5269 16.4355 13.4097 16.4355Z" fill="#46525E"/>
<path d="M28.2275 24.1694H26.5175L26.5121 17.4034C26.5116 16.8697 26.0511 16.4375 25.483 16.4375C24.915 16.4375 24.4539 16.8701 24.4539 17.4043V24.1694H20.7625C20.7837 24.1119 22.4648 19.5769 22.4814 19.5181C22.8461 18.2139 20.9538 17.7489 20.5318 18.8911L18.3389 24.8241C18.107 25.4519 18.604 26.108 19.311 26.108H24.4537C24.4534 27.7635 24.3653 28.0359 24.7564 28.403C25.4037 29.0116 26.5174 28.5755 26.5174 27.7169V26.1082H28.2273C28.7958 26.1082 29.2564 25.6754 29.2564 25.1414C29.2566 24.5877 28.7825 24.1694 28.2275 24.1694Z" fill="#46525E"/>
<path d="M44.9451 32.3581C44.7578 32.0735 44.4269 31.9004 44.0707 31.9004H37.7682C37.2004 31.9004 36.7402 32.3327 36.7402 32.8662C36.7402 33.3996 37.2004 33.8319 37.7682 33.8319H42.4085L37.6678 42.7543C37.4142 43.2315 37.6205 43.8115 38.1284 44.0497C38.2759 44.1189 38.4325 44.1517 38.5867 44.1517C38.9641 44.1517 39.3274 43.9557 39.5073 43.6171L44.9905 33.2976C45.1496 32.998 45.1325 32.6428 44.9451 32.3581Z" fill="#46525E"/>
<path d="M60.3799 27.325C58.6077 27.6277 57.3205 29.0775 57.3205 30.7696V33.9483C57.3205 35.6409 58.609 37.0912 60.3815 37.3939L60.7929 37.4642C58.9177 46.9206 51.1946 54.4687 41.2947 56.658C41.0427 54.9228 39.4652 53.6291 37.601 53.6291H33.1315C31.2675 53.6291 29.6901 54.9224 29.4383 56.6575C28.7058 61.7036 32.8367 65.2264 37.3311 64.9848C54.6513 64.054 68.5088 50.9991 69.4172 34.6902C69.6643 30.2527 65.5387 26.4438 60.3799 27.325Z" fill="#6C7A88"/>
<path d="M37.3318 64.9841C54.652 64.0532 68.5095 50.9983 69.4179 34.6894C69.4933 33.3341 69.1592 32.0383 68.514 30.916C66.7567 31.2855 65.4057 32.7161 65.3071 34.4875C64.507 48.8511 52.3792 60.302 37.0967 61.1233C35.2133 61.2245 33.6994 62.5005 33.3125 64.15C34.5204 64.7582 35.9075 65.0606 37.3318 64.9841Z" fill="#596775"/>
</g>
<defs>
<clipPath id="clip0_1243_55215">
<rect width="69.1881" height="65" fill="white" transform="translate(0.240234)"/>
</clipPath>
</defs>
</svg>
