<svg width="18" height="23" viewBox="16 16 16 16" fill="none" xmlns="http://www.w3.org/2000/svg">
<path d="M21 19.5H25C26.1 19.5 27 18.6 27 17.5V13.5C27 12.4 26.1 11.5 25 11.5H21C19.9 11.5 19 12.4 19 13.5V17.5C19 18.6 19.9 19.5 21 19.5Z" fill="#121316"/>
<path d="M21 29.5H25C26.1 29.5 27 28.6 27 27.5V23.5C27 22.4 26.1 21.5 25 21.5H21C19.9 21.5 19 22.4 19 23.5V27.5C19 28.6 19.9 29.5 21 29.5Z" fill="#121316"/>
<path d="M29 13.5V17.5C29 18.6 29.9 19.5 31 19.5H35C36.1 19.5 37 18.6 37 17.5V13.5C37 12.4 36.1 11.5 35 11.5H31C29.9 11.5 29 12.4 29 13.5Z" fill="#121316"/>
<path d="M31 29.5H35C36.1 29.5 37 28.6 37 27.5V23.5C37 22.4 36.1 21.5 35 21.5H31C29.9 21.5 29 22.4 29 23.5V27.5C29 28.6 29.9 29.5 31 29.5Z" fill="#121316"/>
</svg>
