<svg width="17" height="17" viewBox="0 0 14 14" fill="none" xmlns="http://www.w3.org/2000/svg">
<path d="M10.0448 13.6657H10.0635C10.4155 13.6657 10.7481 13.527 11.0001 13.275L12.8081 11.467C12.8701 11.4051 12.9193 11.3317 12.9528 11.2508C12.9863 11.1699 13.0036 11.0832 13.0036 10.9957C13.0036 10.9081 12.9863 10.8214 12.9528 10.7405C12.9193 10.6597 12.8701 10.5862 12.8081 10.5243L10.1415 7.85767C10.0796 7.79571 10.0061 7.74655 9.92526 7.71301C9.84438 7.67947 9.75768 7.66221 9.67013 7.66221C9.58257 7.66221 9.49588 7.67947 9.415 7.71301C9.33412 7.74655 9.26065 7.79571 9.1988 7.85767L8.13613 8.92034C7.64346 8.77367 6.72413 8.44034 6.14146 7.85767C5.5588 7.27501 5.22546 6.35567 5.0788 5.86301L6.14146 4.80034C6.20343 4.73848 6.25258 4.66501 6.28612 4.58414C6.31967 4.50326 6.33693 4.41656 6.33693 4.32901C6.33693 4.24145 6.31967 4.15476 6.28612 4.07388C6.25258 3.993 6.20343 3.91953 6.14146 3.85767L3.4748 1.19101C3.34734 1.07071 3.17872 1.0037 3.00346 1.0037C2.8282 1.0037 2.65958 1.07071 2.53213 1.19101L0.724795 2.99901C0.471462 3.25234 0.328795 3.60034 0.334129 3.95567C0.349462 4.90501 0.600795 8.20234 3.19946 10.801C5.79813 13.3997 9.09546 13.6503 10.0448 13.6657ZM3.00413 2.60501L4.72813 4.32901L3.86613 5.19101C3.78768 5.26924 3.73006 5.36585 3.6985 5.47204C3.66695 5.57824 3.66247 5.69064 3.68546 5.79901C3.70146 5.87567 4.0928 7.69368 5.19946 8.80034C6.30613 9.90701 8.12413 10.2983 8.2008 10.3143C8.30916 10.3375 8.4216 10.333 8.52781 10.3015C8.63403 10.2699 8.73064 10.2122 8.8088 10.1337L9.6708 9.27168L11.3948 10.9957L10.0575 12.3323C9.22546 12.3183 6.3788 12.095 4.14213 9.85768C1.89813 7.61368 1.6808 4.75701 1.66746 3.94167L3.00413 2.60501ZM12.3335 6.33234H13.6668C13.6668 2.91234 11.0848 0.333008 7.66013 0.333008V1.66634C10.3681 1.66634 12.3335 3.62834 12.3335 6.33234Z" fill="white"/>
</svg>
