<svg width="71" height="65" viewBox="0 0 71 65" fill="none" xmlns="http://www.w3.org/2000/svg">
<g clip-path="url(#clip0_1243_55228)">
<path d="M69.6558 24.2826C69.3981 24.0226 69.0268 23.8885 68.6487 23.8885H64.4985C62.8226 17.373 58.9037 11.4686 53.3689 7.16219C47.4367 2.54706 39.9218 0.00380859 32.2065 0C32.0795 0 31.9512 0.0255176 31.843 0.0881055C31.551 0.25708 31.4462 0.580811 31.5566 0.857568L35.2615 10.1463C35.3602 10.3943 35.6124 10.5584 35.8942 10.5584C44.6552 10.5584 52.3318 16.0847 54.6982 23.8885H51.1347C50.7565 23.8885 50.3853 24.0226 50.1276 24.2826C49.6419 24.7726 49.6444 25.4909 50.0699 25.9707L58.8536 35.873C59.1103 36.1625 59.4907 36.3299 59.8918 36.3299C60.2929 36.3299 60.6731 36.1626 60.93 35.873L69.7137 25.9707C70.1391 25.4909 70.1414 24.7726 69.6558 24.2826Z" fill="#507BE9"/>
<path d="M31.5131 29.834C39.7226 29.834 46.3777 23.5817 46.3777 15.8691C46.3777 8.15657 39.7226 1.9043 31.5131 1.9043C23.3036 1.9043 16.6484 8.15657 16.6484 15.8691C16.6484 23.5817 23.3036 29.834 31.5131 29.834Z" fill="#FFEE78"/>
<path d="M46.3783 15.8691C46.3783 8.15661 39.7231 1.9043 31.5137 1.9043V29.834C39.7231 29.834 46.3783 23.5817 46.3783 15.8691Z" fill="#FCD232"/>
<path d="M31.5127 31.7383C22.1987 31.7383 14.6211 24.6194 14.6211 15.8691C14.6211 7.1189 22.1987 0 31.5127 0C40.8268 0 48.4044 7.1189 48.4044 15.8691C48.4044 24.6194 40.8268 31.7383 31.5127 31.7383ZM31.5127 3.80859C24.4341 3.80859 18.6751 9.21896 18.6751 15.8691C18.6751 22.5193 24.4341 27.9297 31.5127 27.9297C38.5914 27.9297 44.3504 22.5193 44.3504 15.8691C44.3504 9.21896 38.5914 3.80859 31.5127 3.80859Z" fill="#FCD232"/>
<path d="M44.3513 15.8691C44.3513 22.5193 38.5923 27.9297 31.5137 27.9297V31.7383C40.8277 31.7383 48.4053 24.6194 48.4053 15.8691C48.4053 7.1189 40.8277 0 31.5137 0V3.80859C38.5923 3.80859 44.3513 9.21896 44.3513 15.8691Z" fill="#F7B90F"/>
<path d="M36.9181 19.043C36.9181 16.2429 34.4932 13.9648 31.5127 13.9648C30.7676 13.9648 30.1614 13.3953 30.1614 12.6953C30.1614 11.9953 30.7676 11.4258 31.5127 11.4258C32.1527 11.4258 32.7095 11.8521 32.8365 12.4395C33.0592 13.4701 34.1299 14.136 35.2265 13.9268C36.3235 13.7174 37.0323 12.7122 36.8096 11.6815C36.4419 9.9808 35.1778 8.61732 33.5397 7.99068V7.61719C33.5397 6.56551 32.6322 5.71289 31.5127 5.71289C30.3933 5.71289 29.4857 6.56551 29.4857 7.61719V7.98903C27.507 8.74402 26.1074 10.5685 26.1074 12.6953C26.1074 15.4954 28.5323 17.7734 31.5127 17.7734C32.2579 17.7734 32.8641 18.3429 32.8641 19.043C32.8641 19.743 32.2579 20.3125 31.5127 20.3125C30.8728 20.3125 30.316 19.8862 30.189 19.2988C29.9663 18.2682 28.8964 17.6026 27.799 17.8115C26.7019 18.0209 25.9932 19.0261 26.2159 20.0568C26.5836 21.7575 27.8477 23.1211 29.4856 23.7477V24.1211C29.4856 25.1728 30.3932 26.0254 31.5126 26.0254C32.6321 26.0254 33.5396 25.1728 33.5396 24.1211V23.7492C35.5185 22.9943 36.9181 21.1697 36.9181 19.043Z" fill="#FCD232"/>
<path d="M31.5137 13.9648V17.7734C32.2588 17.7734 32.865 18.3429 32.865 19.043C32.865 19.743 32.2588 20.3125 31.5137 20.3125V26.0254C32.6331 26.0254 33.5407 25.1728 33.5407 24.1211V23.7492C35.5194 22.9943 36.919 21.1698 36.919 19.043C36.919 16.2429 34.4942 13.9648 31.5137 13.9648Z" fill="#F7B90F"/>
<path d="M32.8374 12.4395C33.0601 13.4701 34.1308 14.136 35.2274 13.9268C36.3244 13.7174 37.0332 12.7122 36.8105 11.6815C36.4428 9.9808 35.1787 8.61732 33.5407 7.99068V7.61719C33.5407 6.56551 32.6331 5.71289 31.5137 5.71289V11.4258C32.1537 11.4258 32.7104 11.8521 32.8374 12.4395Z" fill="#F7B90F"/>
<path d="M69.1699 44.5533C67.6717 42.5431 64.7225 42.0546 62.5829 43.4621L48.0839 52.9999C47.5159 53.3735 46.8394 53.5738 46.1462 53.5738H35.4316V62.4605H46.9982C49.0782 62.4605 51.1076 61.8594 52.8114 60.7386L68.0083 50.7416C70.1481 49.3341 70.6683 46.5635 69.1699 44.5533Z" fill="#FABE8C"/>
<path d="M48.0839 53.0011C47.5159 53.3747 46.8394 53.575 46.1462 53.575L35.4316 52.7945V57.3836H46.3774C51.2207 57.3836 55.1611 53.6818 55.1611 49.1317C55.1611 48.8751 55.1468 48.6217 55.1223 48.3711L48.0839 53.0011Z" fill="#E6A578"/>
<path d="M69.1694 44.5537C67.6712 42.5435 64.722 42.055 62.5823 43.4625L50.3883 51.4841C50.8429 50.8014 51.1066 49.9953 51.1066 49.1309C51.1066 46.6769 48.989 44.6875 46.3769 44.6875H34.8906L33.5685 43.7559C30.9354 41.9006 27.6727 40.8789 24.3813 40.8789C21.6066 40.8789 18.8826 41.5877 16.5034 42.9288C16.5034 42.9288 14.2493 44.1995 12.9019 44.9589C12.2913 45.3031 11.918 45.9229 11.918 46.5918V60.5566C11.918 61.6083 12.8255 62.4609 13.945 62.4609H46.9977C49.0777 62.4609 51.1071 61.8598 52.8109 60.7389L68.0078 50.742C70.1476 49.3345 70.6678 46.5639 69.1694 44.5537Z" fill="#FFD2AA"/>
<path d="M35.4316 62.4605H46.9982C49.0782 62.4605 51.1076 61.8594 52.8114 60.7386L68.0083 50.7416C70.148 49.3341 70.668 46.5635 69.1698 44.5533C67.6715 42.5431 64.7224 42.0546 62.5827 43.4621L50.3887 51.4837C50.8434 50.8011 51.1071 49.9949 51.1071 49.1305C51.1071 46.6765 48.9895 44.6871 46.3774 44.6871H35.4316V62.4605Z" fill="#FABE8C"/>
<path d="M55.123 48.3711L50.3895 51.4849C50.3602 51.5289 50.3309 51.5731 50.2999 51.616C49.4501 52.7979 48.0106 53.575 46.3781 53.575H32.1891C31.0697 53.575 30.1621 54.4276 30.1621 55.4793C30.1621 56.531 31.0697 57.3836 32.1891 57.3836H46.3781C51.2214 57.3836 55.1617 53.6818 55.1617 49.1317C55.1617 48.8751 55.1474 48.6217 55.123 48.3711Z" fill="#FABE8C"/>
<path d="M13.9458 65H2.86489C1.74544 65 0.837891 64.1474 0.837891 63.0957V41.5137C0.837891 40.462 1.74544 39.6094 2.86489 39.6094H13.9458C15.0652 39.6094 15.9728 40.462 15.9728 41.5137V63.0957C15.9728 64.1474 15.0652 65 13.9458 65Z" fill="#6496F7"/>
<path d="M55.1223 48.3711L50.3888 51.4849C50.3595 51.5289 50.3302 51.5731 50.2993 51.616C49.4494 52.7979 48.01 53.575 46.3774 53.575H35.4316V57.3836H46.3774C51.2207 57.3836 55.1611 53.6818 55.1611 49.1317C55.1611 48.8751 55.1468 48.6217 55.1223 48.3711Z" fill="#E6A578"/>
</g>
<defs>
<clipPath id="clip0_1243_55228">
<rect width="69.1881" height="65" fill="white" transform="translate(0.837891)"/>
</clipPath>
</defs>
</svg>
