<svg width="233" height="171" viewBox="0 0 233 171" fill="none" xmlns="http://www.w3.org/2000/svg">
<path d="M89.7759 114.106L91.3717 170.137H94.4131L94.2209 114.249L89.7759 114.106Z" fill="#263238"/>
<path d="M78.7725 113.482L63.9669 170.137H60.5746L72.8987 113.482H78.7725Z" fill="#263238"/>
<path d="M106.528 114.106L122.912 170.137H126.305L111.441 113.875L106.528 114.106Z" fill="#263238"/>
<path d="M59.5459 52.5083C59.5459 52.5083 40.7799 51.6403 42.6515 69.2639C44.5231 86.8874 45.6009 104.762 52.5776 110.865C59.5543 116.967 129.806 117.178 135.704 112.173C141.603 107.169 124.441 107.386 121.225 107.386C118.008 107.386 98.1641 108.905 91.7305 95.1805C85.2969 81.4559 86.9011 51.6403 59.5459 52.5083Z" fill="#263238"/>
<path d="M58.3424 52.5493C58.3424 52.5493 43.9964 54.9362 45.3332 67.1215C46.6701 79.3067 50.4299 100.639 57.4066 106.078C64.3833 111.516 91.6634 112.703 106.477 111.957C123.639 111.082 134.468 108.431 134.468 108.431C134.468 108.431 137.601 110.065 136.657 111.143C135.712 112.221 127.34 116.432 86.7755 115.727C46.2105 115.022 49.0263 110.167 47.3468 104.877C45.6674 99.5884 42.1248 71.2849 42.6178 65.0668C43.1107 58.8488 46.9709 53.6071 58.3424 52.5493Z" fill="#455A64"/>
<path d="M98.6491 0.831334C96.3914 0.199721 93.9401 0.189579 91.6745 0.802466C89.409 1.41535 87.4554 2.6171 86.1162 4.22178C84.3031 6.50016 83.877 9.3617 82.0304 11.6197C80.7187 13.2133 78.7802 14.3863 77.176 15.7968C75.5718 17.2072 74.26 19.0719 74.6694 20.9638C75.0538 22.7336 76.9003 24.3068 76.5327 26.0834C76.1817 27.7447 74.0261 28.8297 73.5665 30.4842C73.0736 32.4303 75.3796 34.2476 77.8027 34.5527C80.2257 34.8579 82.632 34.0984 84.913 33.3661C87.194 32.6337 89.617 31.9014 92.0317 32.254C94.8308 32.6676 96.9781 34.451 99.4262 35.6445C102.007 36.8414 104.962 37.4025 107.929 37.2592C110.897 37.1159 113.749 36.2744 116.137 34.8375C117.975 33.6916 119.588 31.915 119.136 30.0909C118.719 28.3686 116.63 27.1751 116.078 25.4867C115.193 22.9777 117.749 20.4146 117.373 17.8175C116.855 14.3321 111.525 12.7386 109.62 9.59225C108.692 8.08011 108.609 6.31708 107.798 4.76426C106.988 3.21143 104.849 1.82812 102.944 2.49265" fill="#263238"/>
<path d="M100.453 32.5524C100.177 31.3115 100.67 26.0902 100.67 26.0902C100.67 26.0902 106.369 25.5071 106.619 20.7808C106.87 16.0545 106.285 5.18475 106.285 5.18475L95.7824 1.11621L86.5915 9.59233L86.4161 32.505L100.453 32.5524Z" fill="#FFBE9D"/>
<path d="M105.542 13.5181C105.54 13.6339 105.497 13.7467 105.417 13.8425C105.336 13.9384 105.223 14.0129 105.091 14.0569C104.959 14.1009 104.814 14.1124 104.674 14.0899C104.534 14.0675 104.406 14.0121 104.304 13.9307C104.203 13.8492 104.133 13.7454 104.104 13.632C104.074 13.5187 104.087 13.4009 104.14 13.2933C104.192 13.1856 104.283 13.093 104.4 13.0269C104.517 12.9607 104.656 12.9241 104.798 12.9214C104.994 12.9214 105.182 12.984 105.321 13.0957C105.46 13.2075 105.54 13.3592 105.542 13.5181Z" fill="#263238"/>
<path d="M106.01 12.4605C105.918 12.5419 105.366 12.1689 104.589 12.1418C103.812 12.1147 103.227 12.4402 103.144 12.352C103.06 12.2639 103.194 12.1689 103.453 12.0198C103.792 11.8281 104.199 11.7328 104.612 11.7488C105.024 11.7647 105.419 11.891 105.734 12.1079C105.976 12.2706 106.051 12.4266 106.01 12.4605Z" fill="#263238"/>
<path d="M97.0202 13.5183C97.0312 13.6006 97.0206 13.6839 96.9893 13.7627C96.9579 13.8415 96.9065 13.9141 96.8383 13.9757C96.7702 14.0373 96.6868 14.0865 96.5936 14.1203C96.5004 14.154 96.3995 14.1714 96.2975 14.1714C96.1955 14.1714 96.0946 14.154 96.0014 14.1203C95.9082 14.0865 95.8249 14.0373 95.7567 13.9757C95.6885 13.9141 95.6371 13.8415 95.6057 13.7627C95.5744 13.6839 95.5638 13.6006 95.5748 13.5183C95.5638 13.436 95.5744 13.3527 95.6057 13.2739C95.6371 13.1951 95.6885 13.1226 95.7567 13.061C95.8249 12.9994 95.9082 12.9501 96.0014 12.9164C96.0946 12.8827 96.1955 12.8652 96.2975 12.8652C96.3995 12.8652 96.5004 12.8827 96.5936 12.9164C96.6868 12.9501 96.7702 12.9994 96.8383 13.061C96.9065 13.1226 96.9579 13.1951 96.9893 13.2739C97.0206 13.3527 97.0312 13.436 97.0202 13.5183Z" fill="#263238"/>
<path d="M97.3539 12.5826C97.262 12.664 96.7106 12.2911 95.9335 12.2639C95.1565 12.2368 94.5716 12.5623 94.4881 12.4741C94.4045 12.386 94.5382 12.2911 94.7972 12.1419C95.1344 11.9512 95.5396 11.8558 95.9502 11.8706C96.3632 11.8866 96.7587 12.0103 97.0782 12.2232C97.3122 12.3928 97.3957 12.5419 97.3539 12.5826Z" fill="#263238"/>
<path d="M100.287 18.0344C100.699 17.9348 101.126 17.8823 101.557 17.8784C101.757 17.8784 101.949 17.8377 101.983 17.7225C102.001 17.5424 101.958 17.3616 101.857 17.2003C101.682 16.7799 101.49 16.3324 101.298 15.8441C100.774 14.704 100.352 13.5347 100.036 12.3452C100.668 13.441 101.196 14.5745 101.615 15.7357C101.799 16.2103 101.983 16.6579 102.158 17.0918C102.274 17.3048 102.304 17.5425 102.242 17.7699C102.215 17.8298 102.171 17.8834 102.112 17.926C102.054 17.9686 101.984 17.9988 101.907 18.014C101.797 18.0265 101.684 18.0265 101.573 18.014C101.148 18.071 100.714 18.0778 100.287 18.0344Z" fill="#263238"/>
<path d="M100.671 26.1036C97.9741 26.0324 95.3612 25.3256 93.1511 24.0693C93.1511 24.0693 94.9225 27.514 100.604 27.236L100.671 26.1036Z" fill="#EB996E"/>
<path d="M100.003 19.7027C99.9555 19.503 99.8483 19.3159 99.691 19.1575C99.5337 18.9991 99.3311 18.8744 99.1008 18.7941C98.9421 18.7354 98.7697 18.7051 98.5953 18.7051C98.4209 18.7051 98.2486 18.7354 98.0898 18.7941C97.9372 18.8556 97.8113 18.9535 97.7292 19.0747C97.647 19.1959 97.6125 19.3346 97.6303 19.4722C97.6775 19.6304 97.7825 19.7734 97.9316 19.8823C98.0807 19.9912 98.267 20.061 98.4658 20.0824C98.8546 20.1242 99.2498 20.1011 99.6272 20.0146C99.7335 20.0013 99.8357 19.9713 99.928 19.9265C99.9735 19.9032 100.01 19.8696 100.032 19.8298C100.054 19.7901 100.062 19.7459 100.053 19.7027" fill="#EB996E"/>
<path d="M98.0641 18.0142C98.014 18.0142 97.9221 18.1837 97.9471 18.4889C97.994 18.8976 98.2227 19.2785 98.5905 19.5602C98.9551 19.8405 99.4338 20.0021 99.9357 20.0146C100.32 20.0146 100.537 19.9332 100.521 19.8925C100.504 19.8518 99.6098 19.8518 98.8913 19.3026C98.1727 18.7533 98.1895 18.0074 98.0641 18.0142Z" fill="#263238"/>
<path d="M106.762 4.64922C106.552 6.01815 105.735 7.27814 104.463 8.19312C103.191 9.1081 101.552 9.61527 99.8519 9.61961L101.431 6.79876C100.027 8.12103 98.5735 9.51111 96.6434 10.2706C94.7134 11.03 92.1984 11.1521 90.5608 10.0129C90.026 11.1724 90.0344 12.454 89.5414 13.6203C89.0485 14.7867 87.8704 19.6146 86.3999 19.4248C84.9293 19.2349 84.0353 14.4001 83.6844 13.322C83.2626 11.789 83.29 10.197 83.7645 8.6742C84.2391 7.15139 85.1475 5.74023 86.4166 4.55428C87.9122 3.13872 89.7927 2.02456 91.9097 1.29967C94.0267 0.574786 96.3222 0.259007 98.6153 0.377251C100.66 0.450425 102.631 1.01446 104.28 1.99788C105.689 2.90973 106.67 4.18503 107.062 5.6121" fill="#263238"/>
<path d="M114.566 25.9408C114.704 25.9334 114.839 25.9082 114.967 25.8662C115.338 25.7749 115.697 25.6521 116.037 25.5C117.313 24.9472 118.369 24.1096 119.078 23.086C119.628 22.3302 119.961 21.4839 120.054 20.6095C120.146 19.7351 119.995 18.855 119.613 18.0343C119.16 17.0639 118.43 16.1947 117.482 15.4982C116.466 14.7482 115.219 14.2351 113.873 14.0132C113.248 13.9415 112.665 13.7168 112.202 13.369C111.811 12.9855 111.586 12.5095 111.558 12.0128C111.458 11.016 111.943 10.0464 112.076 9.06991C112.222 8.13006 111.984 7.17733 111.399 6.35755C110.886 5.6475 110.136 5.06936 109.235 4.68945C108.4 4.34362 107.656 4.11986 107.013 3.8893C106.449 3.71135 105.911 3.48397 105.409 3.21122C104.997 2.96328 104.629 2.67131 104.314 2.34326C104.36 2.44748 104.425 2.54569 104.506 2.63484C104.734 2.89852 105.017 3.12798 105.342 3.31292C105.84 3.61252 106.378 3.86505 106.946 4.0656C107.589 4.30972 108.35 4.55383 109.118 4.89965C109.956 5.27003 110.648 5.82469 111.115 6.49994C111.656 7.2679 111.868 8.15991 111.717 9.036C111.583 9.96498 111.074 10.9347 111.165 12.0467C111.193 12.6244 111.458 13.178 111.917 13.6199C112.44 14.0217 113.102 14.2844 113.814 14.3726C115.044 14.5829 116.189 15.04 117.145 15.7022C118.101 16.3643 118.838 17.2104 119.287 18.1631C119.656 18.9417 119.809 19.7768 119.736 20.6089C119.662 21.441 119.363 22.2498 118.861 22.9775C118.193 23.9781 117.206 24.8143 116.003 25.3983C115.118 25.7916 114.566 25.9069 114.566 25.9408Z" fill="#263238"/>
<path d="M76.7418 32.1523C76.7418 32.1523 76.2488 31.881 75.3882 31.3792C74.1421 30.7096 73.1522 29.77 72.5307 28.6669C72.1506 27.9012 72.0919 27.0552 72.3636 26.2597C72.5145 25.8291 72.8027 25.4384 73.1991 25.1272C73.6506 24.8062 74.1504 24.5328 74.6864 24.3135C75.3033 24.0446 75.8234 23.6499 76.1955 23.1684C76.5676 22.6869 76.7789 22.1351 76.8086 21.5673C76.8671 20.3399 75.9313 19.3228 75.5971 18.2311C75.3122 17.1336 75.5353 15.9894 76.2238 15.0169C76.8601 14.0908 77.7113 13.2734 78.7304 12.6097C80.6437 11.3078 82.6406 10.3517 84.0193 9.21927C85.1554 8.37668 86.0019 7.30876 86.4757 6.1204C86.5899 5.79556 86.6572 5.46105 86.6762 5.12361C86.6978 5.00672 86.6978 4.88788 86.6762 4.771C86.6069 5.21362 86.4952 5.65119 86.342 6.07971C85.8194 7.21968 84.9584 8.23746 83.8355 9.04296C82.4652 10.1076 80.4933 11.023 78.5048 12.3453C77.4494 13.0314 76.5671 13.8764 75.9063 14.8339C75.1579 15.8805 74.9167 17.1158 75.2295 18.2989C75.6138 19.4855 76.5079 20.462 76.441 21.5402C76.4203 22.067 76.2256 22.5797 75.8773 23.0247C75.5289 23.4696 75.0397 23.8304 74.4608 24.0694C73.8976 24.3049 73.3727 24.5965 72.8984 24.9374C72.4674 25.2922 72.1566 25.7313 71.996 26.2122C71.7216 27.0675 71.7979 27.972 72.2132 28.7889C72.5652 29.4477 73.0799 30.0408 73.7255 30.5316C74.211 30.9017 74.7367 31.2353 75.2963 31.5284C75.7475 31.7657 76.1319 31.9353 76.3574 32.037C76.4788 32.0889 76.608 32.1276 76.7418 32.1523Z" fill="#263238"/>
<path d="M106.954 10.3042C106.147 9.75955 105.578 9.01734 105.333 8.18859C105.095 7.36368 104.969 6.52007 104.957 5.67288C104.957 5.42876 104.957 5.11006 105.275 5.04903C105.592 4.98801 105.793 5.21855 105.926 5.42876C106.948 6.99861 107.309 8.79652 106.954 10.5483L106.77 10.4059" fill="#263238"/>
<path d="M121.534 166.78L121.693 160.677L107.623 160.365L107.28 169.282L108.116 169.35C111.992 169.608 127.851 170.448 130.466 169.865C133.415 169.221 121.534 166.78 121.534 166.78Z" fill="#92E3A9"/>
<g opacity="0.5">
<path d="M112.386 169.316C112.21 168.346 111.596 167.464 110.665 166.841C109.758 166.216 108.594 165.894 107.406 165.939L107.297 169.126L112.386 169.316Z" fill="white"/>
</g>
<g opacity="0.4">
<path d="M127.332 168.143C127.332 168.143 131.51 169.214 130.95 169.764C130.391 170.313 114.348 169.954 107.28 169.289V169.038L126.021 169.587C126.021 169.587 126.514 168.15 127.332 168.143Z" fill="white"/>
</g>
<path d="M107.046 169.024H107.288L107.982 169.072L110.538 169.221C112.694 169.33 115.677 169.452 118.977 169.533C122.278 169.614 125.26 169.621 127.424 169.608C125.26 169.608 122.278 169.56 118.977 169.486C115.677 169.411 112.702 169.302 110.538 169.221L107.982 169.113H107.288L107.046 169.024Z" fill="#263238"/>
<path d="M126.029 169.764C126.158 169.422 126.332 169.092 126.547 168.78C126.805 168.494 127.105 168.234 127.441 168.007C127.013 168.148 126.649 168.392 126.396 168.706C126.144 169.02 126.016 169.389 126.029 169.764Z" fill="#263238"/>
<path d="M121.936 167.96C121.977 167.96 122.186 167.791 122.395 167.533C122.603 167.275 122.753 167.052 122.712 167.024C122.67 166.997 122.47 167.201 122.253 167.458C122.105 167.606 121.997 167.777 121.936 167.96Z" fill="#263238"/>
<path d="M120.815 167.444C120.815 167.478 121.074 167.363 121.316 167.187C121.559 167.01 121.743 166.855 121.717 166.827C121.692 166.8 121.458 166.909 121.208 167.085C120.957 167.261 120.782 167.417 120.815 167.444Z" fill="#263238"/>
<path d="M120.13 166.353C120.363 166.431 120.614 166.463 120.865 166.448C121.112 166.472 121.362 166.455 121.601 166.4C121.122 166.29 120.618 166.273 120.13 166.353Z" fill="#263238"/>
<path d="M119.913 165.587C120.156 165.729 120.449 165.803 120.748 165.797C121.029 165.84 121.319 165.816 121.584 165.729C121.309 165.686 121.029 165.663 120.748 165.661C120.473 165.62 120.193 165.595 119.913 165.587Z" fill="#263238"/>
<path d="M122.454 166.977C122.752 167.017 123.057 167.017 123.356 166.977C123.684 166.951 124.008 166.901 124.325 166.828C124.516 166.787 124.701 166.73 124.877 166.658C124.985 166.609 125.068 166.529 125.111 166.434C125.127 166.38 125.124 166.323 125.102 166.27C125.08 166.217 125.039 166.171 124.985 166.136C124.646 165.991 124.257 165.945 123.881 166.005C123.505 166.066 123.166 166.229 122.921 166.468C122.778 166.61 122.673 166.773 122.612 166.95C122.594 167.017 122.594 167.086 122.612 167.153C122.713 166.929 122.86 166.72 123.047 166.536C123.255 166.345 123.529 166.209 123.832 166.143C124.191 166.054 124.578 166.083 124.91 166.224C125.044 166.319 124.985 166.455 124.826 166.529C124.661 166.597 124.487 166.652 124.308 166.692C124.003 166.77 123.69 166.829 123.373 166.868C122.796 166.963 122.454 166.95 122.454 166.977Z" fill="#263238"/>
<path d="M122.678 167.018C122.801 166.868 122.846 166.685 122.803 166.509C122.781 166.317 122.704 166.131 122.578 165.967C122.505 165.856 122.398 165.763 122.268 165.695C122.138 165.628 121.988 165.588 121.834 165.58C121.742 165.593 121.659 165.636 121.604 165.698C121.55 165.76 121.527 165.837 121.542 165.912C121.564 166.029 121.612 166.142 121.684 166.245C121.8 166.407 121.94 166.558 122.102 166.692C122.234 166.829 122.406 166.936 122.603 167.004C122.603 167.004 122.427 166.868 122.185 166.631C122.05 166.49 121.93 166.341 121.826 166.184C121.709 166.021 121.634 165.743 121.826 165.716C122.018 165.689 122.277 165.892 122.411 166.041C122.531 166.187 122.613 166.35 122.653 166.523C122.685 166.686 122.694 166.852 122.678 167.018Z" fill="#263238"/>
<path d="M107.48 165.906C107.48 165.906 107.882 165.906 108.517 165.96C109.345 166.05 110.125 166.33 110.764 166.767C111.404 167.204 111.876 167.781 112.126 168.428C112.318 168.923 112.335 169.249 112.36 169.249C112.385 169.249 112.36 169.167 112.36 169.018C112.345 168.809 112.3 168.602 112.226 168.401C111.998 167.724 111.523 167.119 110.864 166.665C110.2 166.216 109.385 165.937 108.525 165.865C108.267 165.841 108.006 165.841 107.748 165.865C107.657 165.867 107.567 165.881 107.48 165.906Z" fill="#263238"/>
<path d="M109.101 161.186C108.973 161.964 108.906 162.748 108.9 163.532C108.841 164.314 108.841 165.097 108.9 165.878C109.024 165.102 109.091 164.321 109.101 163.539C109.155 162.755 109.155 161.97 109.101 161.186Z" fill="#263238"/>
<path d="M114.19 168.238C114.857 168.386 115.546 168.457 116.237 168.448C116.926 168.493 117.62 168.466 118.301 168.367C118.301 168.326 117.373 168.367 116.245 168.312C115.117 168.258 114.198 168.197 114.19 168.238Z" fill="#263238"/>
<path d="M111.432 168.177C111.432 168.177 111.499 168.333 111.591 168.509C111.683 168.686 111.725 168.835 111.775 168.835C111.825 168.835 111.85 168.652 111.775 168.455C111.7 168.258 111.466 168.15 111.432 168.177Z" fill="#263238"/>
<path d="M110.389 167.106C110.389 167.106 110.439 167.248 110.581 167.37C110.723 167.492 110.865 167.573 110.898 167.546C110.931 167.519 110.848 167.404 110.706 167.275C110.564 167.146 110.464 167.078 110.389 167.106Z" fill="#263238"/>
<path d="M108.961 166.591C108.961 166.631 109.153 166.631 109.361 166.692C109.57 166.753 109.712 166.855 109.745 166.828C109.778 166.801 109.67 166.638 109.42 166.563C109.169 166.489 108.944 166.557 108.961 166.591Z" fill="#263238"/>
<path d="M107.882 166.34C107.882 166.373 107.941 166.434 108.057 166.475C108.174 166.516 108.283 166.516 108.299 166.475C108.316 166.434 108.241 166.38 108.124 166.34C108.007 166.299 107.882 166.306 107.882 166.34Z" fill="#263238"/>
<path d="M155.507 134.158L152.248 128.665L139.523 133.561L144.194 141.637L145.029 141.372C148.63 140.186 163.244 135.107 165.249 133.629C167.472 131.981 155.507 134.158 155.507 134.158Z" fill="#92E3A9"/>
<g opacity="0.5">
<path d="M148.765 139.779C148.067 138.982 147.032 138.422 145.857 138.205C144.7 137.986 143.484 138.126 142.448 138.599L144.119 141.487L148.765 139.779Z" fill="white"/>
</g>
<g opacity="0.4">
<path d="M161.447 133.242C161.447 133.242 165.75 132.672 165.575 133.357C165.399 134.042 150.878 139.623 144.202 141.63L144.085 141.392L161.096 134.998C161.096 134.998 160.72 133.554 161.447 133.242Z" fill="white"/>
</g>
<path d="M143.885 141.467C143.963 141.456 144.039 141.436 144.11 141.406L144.762 141.196L147.152 140.389C149.14 139.711 151.864 138.707 154.855 137.561C157.846 136.415 160.512 135.337 162.425 134.53L164.698 133.567L165.308 133.296L165.517 133.188L165.291 133.269L164.664 133.513L162.375 134.442C160.437 135.222 157.763 136.293 154.78 137.439C151.797 138.585 149.082 139.582 147.102 140.294L144.77 141.141L144.135 141.379L143.885 141.467Z" fill="#263238"/>
<path d="M161.188 135.168C161.109 134.819 161.078 134.464 161.097 134.11C161.175 133.759 161.298 133.416 161.464 133.086C161.143 133.36 160.954 133.719 160.93 134.096C160.848 134.467 160.94 134.849 161.188 135.168Z" fill="#263238"/>
<path d="M156.535 135.066C156.585 135.066 156.66 134.822 156.702 134.517C156.744 134.212 156.752 133.954 156.702 133.947C156.6 134.119 156.543 134.306 156.535 134.497C156.485 134.808 156.485 135.059 156.535 135.066Z" fill="#263238"/>
<path d="M155.248 135.018C155.29 135.018 155.424 134.849 155.557 134.605C155.691 134.361 155.749 134.15 155.699 134.137C155.649 134.123 155.524 134.306 155.399 134.551C155.273 134.795 155.207 135.005 155.248 135.018Z" fill="#263238"/>
<path d="M154.028 134.293C154.276 134.275 154.516 134.212 154.73 134.11C154.968 134.046 155.185 133.939 155.365 133.798C155.117 133.816 154.878 133.878 154.663 133.981C154.287 134.123 154.003 134.259 154.028 134.293Z" fill="#263238"/>
<path d="M153.4 133.696C153.688 133.704 153.975 133.665 154.243 133.581C154.511 133.497 154.756 133.37 154.963 133.208C154.443 133.372 153.922 133.535 153.4 133.696Z" fill="#263238"/>
<path d="M156.442 134.001C156.741 133.936 157.024 133.828 157.277 133.683C157.557 133.539 157.82 133.376 158.063 133.194C158.209 133.084 158.343 132.964 158.464 132.835C158.533 132.751 158.56 132.649 158.539 132.55C158.526 132.495 158.493 132.445 158.443 132.406C158.394 132.368 158.331 132.342 158.263 132.333C158.014 132.33 157.768 132.371 157.541 132.455C157.314 132.538 157.114 132.662 156.954 132.817C156.793 132.971 156.678 133.153 156.615 133.349C156.553 133.544 156.545 133.749 156.592 133.947C156.592 134.069 156.667 134.137 156.676 134.13C156.641 133.904 156.655 133.674 156.718 133.452C156.802 133.207 156.97 132.986 157.202 132.815C157.334 132.709 157.491 132.627 157.663 132.572C157.836 132.517 158.02 132.491 158.205 132.496C158.38 132.496 158.405 132.665 158.297 132.788C158.191 132.91 158.07 133.023 157.937 133.127C157.706 133.309 157.457 133.477 157.194 133.628C156.743 133.859 156.425 133.981 156.442 134.001Z" fill="#263238"/>
<path d="M156.668 133.954C156.691 133.775 156.632 133.596 156.501 133.452C156.37 133.289 156.196 133.153 155.991 133.052C155.865 132.98 155.718 132.936 155.564 132.922C155.411 132.909 155.256 132.928 155.114 132.977C155.039 133.024 154.99 133.093 154.976 133.168C154.962 133.244 154.984 133.321 155.039 133.384C155.12 133.48 155.225 133.561 155.348 133.621C155.542 133.728 155.753 133.815 155.974 133.879C156.169 133.946 156.381 133.977 156.593 133.967C156.593 133.967 156.367 133.913 156.016 133.784C155.813 133.712 155.62 133.624 155.44 133.52C155.247 133.425 155.022 133.201 155.214 133.092C155.331 133.062 155.454 133.054 155.575 133.066C155.696 133.079 155.813 133.114 155.916 133.167C156.102 133.255 156.266 133.37 156.401 133.506C156.511 133.646 156.6 133.797 156.668 133.954Z" fill="#263238"/>
<path d="M142.498 138.544C142.498 138.544 142.84 138.375 143.45 138.212C144.238 137.991 145.088 137.956 145.9 138.111C146.711 138.266 147.453 138.604 148.037 139.087C148.497 139.453 148.689 139.765 148.714 139.731C148.687 139.656 148.644 139.585 148.589 139.521C148.457 139.341 148.303 139.173 148.129 139.019C147.546 138.5 146.783 138.136 145.941 137.976C145.098 137.815 144.215 137.864 143.408 138.117C143.168 138.192 142.938 138.288 142.723 138.402C142.564 138.483 142.489 138.538 142.498 138.544Z" fill="#263238"/>
<path d="M141.303 133.744C141.626 134.482 142.003 135.204 142.431 135.907C142.806 136.627 143.233 137.329 143.709 138.009C143.386 137.27 143.009 136.548 142.581 135.846C142.21 135.124 141.783 134.422 141.303 133.744Z" fill="#263238"/>
<path d="M149.783 138.158C150.457 138.04 151.108 137.851 151.721 137.595C152.36 137.379 152.964 137.098 153.518 136.761C153.518 136.727 152.682 137.086 151.654 137.473C150.627 137.86 149.766 138.124 149.783 138.158Z" fill="#263238"/>
<path d="M147.286 139.114C147.286 139.155 147.436 139.23 147.611 139.352C147.787 139.474 147.912 139.596 147.954 139.575C147.995 139.555 147.953 139.386 147.72 139.25C147.486 139.114 147.294 139.08 147.286 139.114Z" fill="#263238"/>
<path d="M145.79 138.524C145.79 138.565 145.924 138.639 146.116 138.694C146.308 138.748 146.483 138.775 146.5 138.734C146.516 138.694 146.366 138.626 146.174 138.565C145.982 138.504 145.807 138.49 145.79 138.524Z" fill="#263238"/>
<path d="M144.194 138.612C144.194 138.612 144.394 138.571 144.611 138.558C144.829 138.544 145.013 138.558 145.029 138.558C145.046 138.558 144.862 138.422 144.586 138.449C144.311 138.477 144.16 138.585 144.194 138.612Z" fill="#263238"/>
<path d="M143.116 138.775C143.116 138.775 143.225 138.836 143.35 138.829C143.475 138.823 143.575 138.782 143.567 138.748C143.559 138.714 143.458 138.68 143.342 138.687C143.225 138.694 143.116 138.734 143.116 138.775Z" fill="#263238"/>
<path d="M62.7627 54.353L65.7539 42.1474C67.9262 32.2066 85.1382 31.5285 85.1382 31.5285L98.6905 31.3454C98.6905 31.3454 108.717 30.2537 114.891 35.909C121.283 41.7609 129.146 48.6842 129.146 48.6842L123.146 60.9373L108.942 51.444C110.13 53.1351 110.785 55.0382 110.847 56.984C110.847 60.2321 106.67 61.7306 106.67 61.7306L105.375 71.5833L109.552 87.5387L65.428 86.1012C66.1727 80.7496 68.4039 75.6048 71.9535 71.0544L71.118 54.353H62.7627Z" fill="#92E3A9"/>
<path d="M81.6716 40.7031C81.5533 40.954 81.4747 41.216 81.4376 41.4829C81.2956 42.0593 81.1285 42.7713 80.9196 43.6189C80.4684 45.504 79.8836 47.9587 79.2486 50.671C78.6136 53.3834 78.0454 55.933 77.6945 57.7503C77.5106 58.6589 77.3853 59.3981 77.3101 59.9066C77.2499 60.1703 77.2303 60.4391 77.2516 60.7068C77.3621 60.4544 77.4377 60.1929 77.4772 59.927C77.6192 59.3506 77.7947 58.6386 77.9953 57.791C78.4464 55.9059 79.0313 53.4512 79.6663 50.7388C80.3013 48.0265 80.8695 45.4837 81.2204 43.6596C81.4042 42.751 81.5295 42.0186 81.6047 41.5033C81.659 41.239 81.6814 40.971 81.6716 40.7031Z" fill="#263238"/>
<path d="M62.5039 53.7156C65.2156 53.9042 67.9379 53.9721 70.6587 53.919C73.3785 53.9844 76.1005 53.9323 78.8135 53.7631C76.1015 53.579 73.3794 53.5134 70.6587 53.5664C67.9391 53.501 65.2172 53.5508 62.5039 53.7156Z" fill="#263238"/>
<path d="M60.8248 64.7547C61.6603 58.9096 62.8551 53.9053 62.8551 53.9053H78.4795C78.4795 53.9053 76.5411 61.3643 76.9672 63.0595C77.3516 64.5581 107.623 65.5481 115.51 65.6498C115.986 65.365 116.663 65.8464 117.273 65.4125C117.812 65.0244 118.266 64.566 118.618 64.0563C119.084 63.4378 119.446 62.772 119.696 62.0762C119.726 61.946 119.802 61.8257 119.915 61.73C120.027 61.6344 120.172 61.5677 120.331 61.5381C120.49 61.5086 120.657 61.5174 120.81 61.5637C120.962 61.6099 121.095 61.6914 121.192 61.7982C121.509 62.3475 121.15 64.1715 119.654 65.9346C118.159 67.6976 122.086 66.7822 123.523 66.4703C124.96 66.1584 129.472 65.365 129.931 65.6566C130.617 66.0838 130.19 66.7686 128.745 67.0534C127.3 67.3382 123.03 68.4096 123.264 69.0877C123.498 69.7658 130.784 68.0231 130.784 68.0231C130.784 68.0231 132.271 67.4603 132.572 68.1723C133.106 69.4607 125.194 70.7626 124.434 70.8846C123.907 70.966 124.133 71.6509 124.693 71.5627C125.253 71.4746 131.928 69.7522 132.488 71.0609C132.923 72.0645 125.988 72.1866 124.843 73.1766C123.698 74.1666 130.09 72.6409 130.458 73.6106C130.592 73.9767 127.951 74.1395 124.108 74.5802C120.179 74.8846 116.231 74.9978 112.285 74.9193C103.42 75.3126 72.071 75.8415 65.3784 75.455C57.5913 74.9735 60.524 66.789 60.8248 64.7547Z" fill="#FFBE9D"/>
<path d="M110.472 54.6985C110.35 54.1403 110.171 53.5914 109.937 53.0575C109.753 52.5489 109.528 51.9522 109.243 51.2944C109.101 50.969 108.943 50.6164 108.767 50.2705C108.667 50.0807 108.542 49.9179 108.483 49.762C108.417 49.5911 108.389 49.412 108.4 49.233C108.441 48.8547 108.51 48.4788 108.608 48.1074C108.692 47.7413 108.776 47.3887 108.859 47.0428C108.993 46.3647 109.126 45.7816 109.243 45.2256C109.398 44.6712 109.482 44.1054 109.494 43.5371C109.238 44.0664 109.053 44.6166 108.943 45.1781C108.792 45.7273 108.634 46.3308 108.466 46.975L108.191 48.0464C108.077 48.4342 108.001 48.8287 107.965 49.2263C107.951 49.4446 107.988 49.6632 108.074 49.8705C108.161 50.0535 108.262 50.2324 108.374 50.4061C108.55 50.7452 108.717 51.0842 108.867 51.4097C109.143 52.0268 109.411 52.6032 109.645 53.1321C109.839 53.68 110.117 54.2062 110.472 54.6985Z" fill="#263238"/>
<path d="M92.2564 8.47363C91.0532 9.73488 89.7498 11.186 90.0088 12.7659C90.2177 14.1221 91.5796 15.3766 91.354 16.7599C91.0866 18.3534 88.8474 19.3977 88.697 21.0047C88.6051 22.3609 90.0172 23.3645 91.0114 24.3952C91.7411 25.1573 92.2783 26.0287 92.5923 26.9596C92.9062 27.8905 92.9909 28.8624 92.8413 29.8199C92.6766 30.7721 92.2473 31.6814 91.5858 32.4791C90.9243 33.2768 90.0479 33.9419 89.0229 34.4241C87.9838 34.8907 86.8135 35.131 85.626 35.1214C84.4385 35.1119 83.2743 34.853 82.2467 34.3699C80.4353 33.3443 79.116 31.8424 78.5119 30.1182C77.5761 27.9348 77.3255 25.3716 78.9213 23.4459C79.573 22.6728 80.5172 22.0083 80.7261 21.0861C80.9934 19.9198 79.9741 18.8213 79.8153 17.6414C79.5981 16.0615 80.9433 14.6171 82.4306 13.5729C83.9178 12.5286 85.6724 11.7013 86.7837 10.3926" fill="#263238"/>
<g opacity="0.3">
<path d="M81.1445 44.0054C80.6014 50.7863 80.309 57.0586 80.1085 63.8598C78.9931 63.8207 77.9098 63.5448 76.9669 63.0597C76.5408 60.1575 79.2479 51.322 81.1445 44.0054Z" fill="black"/>
</g>
<path d="M101.515 40.879C101.637 40.3617 101.57 39.8268 101.323 39.3398C101.039 38.5125 100.596 37.909 100.487 37.9497C100.524 38.4601 100.665 38.962 100.905 39.4347C101.013 39.9392 101.219 40.4267 101.515 40.879Z" fill="#FAFAFA"/>
<path d="M110.388 40.8591C110.455 40.9404 111.048 40.7031 111.625 40.2556C112.201 39.808 112.535 39.3401 112.46 39.2859C112.385 39.2316 111.9 39.5775 111.349 39.9979C110.798 40.4183 110.33 40.7777 110.388 40.8591Z" fill="#FAFAFA"/>
<path d="M118.869 46.4868C118.869 46.4868 118.944 46.4258 118.994 46.3037H118.802C118.672 46.857 118.672 47.4253 118.802 47.9786C118.852 48.6115 119.144 49.216 119.638 49.7077C119.539 49.1037 119.391 48.5056 119.195 47.9176C119.044 47.2395 119.011 46.6021 118.961 46.3105H118.769C118.819 46.4461 118.836 46.48 118.869 46.4868Z" fill="#FAFAFA"/>
<path d="M119.245 53.5257C119.883 53.5042 120.507 53.37 121.075 53.1323C122.044 52.8272 122.796 52.5085 122.746 52.4136C122.105 52.4338 121.477 52.5681 120.908 52.8069C119.955 53.112 119.203 53.4307 119.245 53.5257Z" fill="#FAFAFA"/>
<path d="M112.059 49.6268C112.176 49.6268 112.16 49.0165 111.884 48.3181C111.608 47.6197 111.224 47.1179 111.115 47.1586C111.007 47.1992 111.215 47.7485 111.474 48.4198C111.733 49.0911 111.976 49.6404 112.059 49.6268Z" fill="#FAFAFA"/>
<path d="M104.539 34.1931C104.539 34.288 105.166 34.3897 105.951 34.4236C106.736 34.4575 107.371 34.4236 107.38 34.3015C107.388 34.1795 106.753 34.0981 105.968 34.071C105.182 34.0439 104.539 34.0913 104.539 34.1931Z" fill="#FAFAFA"/>
<path d="M103.01 47.4366C103.085 47.5044 103.762 47.0975 104.213 46.3516C104.551 45.9259 104.671 45.4103 104.547 44.9141C104.422 44.9141 104.247 45.5176 103.829 46.1957C103.411 46.8738 102.918 47.362 103.01 47.4366Z" fill="#FAFAFA"/>
<path d="M88.1708 44.5951C88.0872 44.6629 88.6136 45.2054 89.4074 45.7614C90.2011 46.3174 90.9447 46.6565 91.0116 46.5751C91.0784 46.4937 90.4685 46.0326 89.6915 45.4902C88.9144 44.9477 88.2543 44.5273 88.1708 44.5951Z" fill="#FAFAFA"/>
<path d="M95.5071 42.7236C95.4403 42.8049 95.8998 43.1779 96.5432 43.5644C97.1865 43.9509 97.7714 44.2086 97.8383 44.1272C97.9051 44.0458 97.4456 43.6729 96.8022 43.2864C96.1588 42.8999 95.5823 42.649 95.5071 42.7236Z" fill="#FAFAFA"/>
<path d="M91.9062 37.8549C92.5851 37.7394 93.2052 37.4606 93.6859 37.0548C94.5214 36.4513 95.0311 35.8003 94.9308 35.7461C94.8306 35.6918 94.229 36.214 93.4018 36.7835C92.5747 37.3531 91.8477 37.7668 91.9062 37.8549Z" fill="#FAFAFA"/>
<path d="M83.459 35.9561C83.3922 36.0307 83.8601 36.424 84.5201 36.8241C85.1802 37.2241 85.7734 37.5022 85.8486 37.4208C85.9238 37.3394 85.4476 36.9529 84.7875 36.5461C84.1274 36.1392 83.5342 35.8747 83.459 35.9561Z" fill="#FAFAFA"/>
<path d="M76.4073 38.6687C76.4181 38.1785 76.3278 37.6904 76.14 37.2244C75.9478 36.4446 75.8225 35.8004 75.6972 35.8072C75.512 36.2908 75.512 36.8086 75.6972 37.2922C75.906 38.1059 76.2987 38.7026 76.4073 38.6687Z" fill="#FAFAFA"/>
<path d="M75.1616 45.1986C75.2452 45.2664 75.9972 44.8121 76.8327 44.1747C77.6682 43.5373 78.3116 42.9677 78.228 42.8999C78.1445 42.832 77.3925 43.2796 76.557 43.917C75.7215 44.5544 75.0781 45.124 75.1616 45.1986Z" fill="#FAFAFA"/>
<path d="M69.4476 42.4526C69.5562 42.4119 69.339 41.7745 68.963 41.0964C68.587 40.4184 68.1859 39.8216 68.0773 39.8623C68.1075 40.3387 68.2734 40.8029 68.5619 41.2185C68.9463 41.9373 69.3473 42.4933 69.4476 42.4526Z" fill="#FAFAFA"/>
<path d="M69.1543 50.298C69.0117 49.7306 68.7274 49.1929 68.3188 48.7181C68.0375 48.1913 67.6316 47.7144 67.124 47.3145C67.2658 47.88 67.5503 48.4156 67.9595 48.8876C68.2394 49.417 68.6455 49.8964 69.1543 50.298Z" fill="#FAFAFA"/>
<path d="M74.7861 51.4984C74.8864 51.5594 75.4545 51.0712 76.0728 50.4067C76.6911 49.7422 77.1005 49.1658 77.0086 49.1048C76.9167 49.0437 76.3319 49.5319 75.7219 50.1965C75.112 50.861 74.6942 51.4374 74.7861 51.4984Z" fill="#FAFAFA"/>
<path d="M85.4141 54.8549C85.2127 54.1439 84.822 53.4774 84.2694 52.902C83.8328 52.2665 83.2278 51.7176 82.4981 51.2949C82.8884 51.9337 83.3588 52.5381 83.9018 53.0986C84.3313 53.7241 84.838 54.3125 85.4141 54.8549Z" fill="#FAFAFA"/>
<path d="M93.0506 54.2306C93.5616 53.7735 93.9614 53.242 94.2287 52.6642C94.6232 52.1353 94.8924 51.5511 95.0225 50.9419C94.1136 51.9264 93.4443 53.0426 93.0506 54.2306Z" fill="#FAFAFA"/>
<path d="M102.667 52.4136C103.146 52.9803 103.739 53.4778 104.422 53.885C105.008 54.3805 105.695 54.791 106.452 55.0988C106.535 55.0242 105.75 54.3665 104.706 53.6206C104.117 53.1257 103.427 52.7173 102.667 52.4136Z" fill="#FAFAFA"/>
<path d="M99.0172 60.8895C99.1174 60.9506 99.8026 60.32 100.688 59.5876C101.574 58.8553 102.359 58.2857 102.284 58.2314C101.544 58.4667 100.885 58.8436 100.362 59.3299C99.7631 59.7524 99.3011 60.288 99.0172 60.8895Z" fill="#FAFAFA"/>
<path d="M92.2822 61.1474C92.2345 60.5265 91.9772 59.9283 91.5386 59.4182C90.912 58.5367 90.1516 57.9671 90.0681 58.0621C90.368 58.6052 90.7377 59.1211 91.171 59.6013C91.4748 60.1464 91.8471 60.6645 92.2822 61.1474Z" fill="#FAFAFA"/>
<path d="M82.8156 62.0422C83.5808 61.7493 84.2787 61.3526 84.8794 60.8691C85.5729 60.472 86.18 59.9839 86.6758 59.4248C85.9078 59.7173 85.2071 60.114 84.6037 60.5979C83.9126 60.9951 83.3083 61.4832 82.8156 62.0422Z" fill="#FAFAFA"/>
<path d="M83.651 41.8488C84.3061 41.7633 84.9176 41.5281 85.4139 41.1707C86.2996 40.6486 86.8427 40.0722 86.7591 40.0044C86.6756 39.9366 86.0071 40.3841 85.1549 40.8859C84.3027 41.3877 83.651 41.7606 83.651 41.8488Z" fill="#FAFAFA"/>
<path d="M97.3284 76.601C97.2783 76.6959 97.955 76.9875 98.707 77.4418C99.459 77.8961 100.019 78.3234 100.111 78.2623C100.203 78.2013 99.7765 77.6385 98.966 77.157C98.1556 76.6756 97.3618 76.5128 97.3284 76.601Z" fill="#FAFAFA"/>
<path d="M87.219 79.951C87.9476 79.0352 88.4184 78.0003 88.5977 76.9199C87.8727 77.8372 87.4023 78.8714 87.219 79.951Z" fill="#FAFAFA"/>
<path d="M77.0262 77.0213C76.9343 77.0891 77.4607 77.6451 78.1876 78.2622C78.9145 78.8792 79.5746 79.3268 79.6582 79.259C79.7417 79.1912 79.2237 78.6351 78.4968 78.0181C77.7698 77.401 77.1098 76.9602 77.0262 77.0213Z" fill="#FAFAFA"/>
<path d="M69.4469 81.4835C69.5389 81.558 70.2156 81.1241 71.2183 80.9681C72.2209 80.8121 73.0481 80.9681 73.0898 80.8799C72.81 80.7157 72.4867 80.6068 72.1458 80.5621C71.8048 80.5174 71.4557 80.538 71.1264 80.6223C70.0235 80.8053 69.3885 81.4292 69.4469 81.4835Z" fill="#FAFAFA"/>
<path d="M65.3283 84.5005C65.3283 84.5005 123.03 74.6886 128.62 76.8381C134.209 78.9877 159.969 130.665 159.969 130.665L139.223 137.907L116.906 93.9938C116.906 93.9938 76.5077 105.969 69.4475 104.762C62.3872 103.555 65.3283 84.5005 65.3283 84.5005Z" fill="#455A64"/>
<path d="M91.1205 87.2539C91.9978 87.4912 125.377 98.6323 127.733 102.206C130.09 105.779 124.308 165.227 124.308 165.227H105.324L106.494 112.397L69.4468 104.762L91.1205 87.2539Z" fill="#455A64"/>
<path d="M69.2555 104.904C69.4381 104.899 69.6198 104.881 69.7986 104.85L71.3527 104.626C72.6979 104.423 74.6447 104.111 77.0427 103.697C81.8303 102.877 88.431 101.663 95.6165 99.9611C99.2093 99.1203 102.602 98.2388 105.643 97.3844C108.684 96.53 111.433 95.6756 113.681 94.8958C114.817 94.5228 115.828 94.1499 116.714 93.8244C117.599 93.4989 118.385 93.2209 118.978 92.9632L120.382 92.3868C120.552 92.3264 120.715 92.2514 120.866 92.1631C120.688 92.2061 120.515 92.2605 120.348 92.3258L118.903 92.8412C118.284 93.0717 117.516 93.3429 116.622 93.6481C115.728 93.9532 114.708 94.3262 113.572 94.6652C111.308 95.4179 108.559 96.2113 105.509 97.0792C102.459 97.9472 99.0589 98.7812 95.4828 99.6221C88.3056 101.297 81.73 102.572 76.9591 103.453L71.3026 104.491L69.7652 104.776C69.5904 104.804 69.4196 104.847 69.2555 104.904Z" fill="#263238"/>
<path d="M127.725 115.863C127.819 115.572 127.878 115.274 127.901 114.974C127.984 114.33 128.093 113.51 128.218 112.533C128.344 111.557 128.477 110.262 128.628 108.919C128.883 107.432 128.883 105.924 128.628 104.437C128.258 102.934 127.285 101.572 125.862 100.565C124.73 99.7461 123.447 99.0757 122.06 98.5781C121.142 98.2384 120.202 97.9374 119.245 97.6762C118.899 97.5639 118.541 97.4798 118.175 97.4253C118.175 97.4863 119.646 97.9135 121.927 98.7815C123.264 99.292 124.498 99.9642 125.586 100.775C126.926 101.749 127.844 103.047 128.202 104.477C128.435 105.934 128.435 107.408 128.202 108.865C128.076 110.221 127.968 111.435 127.876 112.486C127.784 113.537 127.742 114.289 127.7 114.934C127.666 115.243 127.675 115.555 127.725 115.863Z" fill="#263238"/>
<path d="M111.073 110.756C109.47 111.073 107.948 111.617 106.578 112.363C108.18 112.044 109.701 111.5 111.073 110.756Z" fill="#263238"/>
<path d="M109.394 109.129C108.853 109.686 108.348 110.265 107.881 110.865C107.046 111.794 106.152 112.438 106.21 112.519C107.028 112.197 107.719 111.697 108.207 111.075C108.822 110.531 109.233 109.856 109.394 109.129Z" fill="#263238"/>
<path d="M102.108 111.543C102.108 111.543 102.166 111.672 102.4 111.787C102.74 111.933 103.119 112.005 103.503 111.997C104.03 111.982 104.557 111.994 105.082 112.031C105.364 112.065 105.619 112.185 105.794 112.367C105.97 112.548 106.053 112.778 106.027 113.008C105.962 114.383 106.041 115.759 106.261 117.124C106.475 115.752 106.542 114.368 106.461 112.987C106.457 112.672 106.331 112.366 106.102 112.113C105.856 111.888 105.517 111.743 105.149 111.706C104.592 111.681 104.033 111.695 103.478 111.746C103.008 111.775 102.536 111.705 102.108 111.543Z" fill="#263238"/>
<path opacity="0.3" d="M106.662 76.5332L67.3337 79.0964L69.0132 75.5229L106.278 75.0889L106.662 76.5332Z" fill="black"/>
<path d="M0.215271 69.5283H232.066V74.5462H219.667L226.059 169.98L222.533 170.136L216.125 74.5462H12.8568L7.40916 170.062H3.86653L9.32254 74.5462H0.215271V69.5283Z" fill="#263238"/>
<path d="M164.447 39.8553L151.588 70.3422H93.3688L93.8032 68.7758L117.34 68.1791L128.185 39.835L164.447 39.8553Z" fill="#263238"/>
<path d="M138.646 54.1696C138.261 55.4241 138.921 56.6447 140.116 56.882C141.311 57.1193 142.623 56.3395 142.982 55.085C143.341 53.8306 142.706 52.6168 141.511 52.3727C140.317 52.1286 139.03 52.922 138.646 54.1696Z" fill="white"/>
</svg>
