<svg width="36" height="36" viewBox="0 0 36 36" fill="none" xmlns="http://www.w3.org/2000/svg">
<path d="M18 12.9167C18.9667 12.9167 19.75 13.7 19.75 14.6667C19.75 15.6333 18.9667 16.4167 18 16.4167C17.0334 16.4167 16.25 15.6333 16.25 14.6667C16.25 13.7 17.0334 12.9167 18 12.9167ZM18 20.4167C20.475 20.4167 23.0834 21.6333 23.0834 22.1667V23.0833H12.9167V22.1667C12.9167 21.6333 15.525 20.4167 18 20.4167ZM18 11.3333C16.1584 11.3333 14.6667 12.825 14.6667 14.6667C14.6667 16.5083 16.1584 18 18 18C19.8417 18 21.3334 16.5083 21.3334 14.6667C21.3334 12.825 19.8417 11.3333 18 11.3333ZM18 18.8333C15.775 18.8333 11.3334 19.95 11.3334 22.1667V24.6667H24.6667V22.1667C24.6667 19.95 20.225 18.8333 18 18.8333Z" fill="white"/>
</svg>
