<svg width="22" height="14" viewBox="0 0 22 14" fill="none" xmlns="http://www.w3.org/2000/svg">
<path d="M16 3.05176e-05H2C0.9 3.05176e-05 0 0.890031 0 2.00003V11H2C2 12.66 3.34 14 5 14C6.66 14 8 12.66 8 11H14C14 12.66 15.34 14 17 14C18.66 14 20 12.66 20 11H22V6.00003L16 3.05176e-05ZM14 2.00003H15L18 5.00003H14V2.00003ZM8 2.00003H12V5.00003H8V2.00003ZM2 2.00003H6V5.00003H2V2.00003ZM5 12.25C4.31 12.25 3.75 11.69 3.75 11C3.75 10.31 4.31 9.75003 5 9.75003C5.69 9.75003 6.25 10.31 6.25 11C6.25 11.69 5.69 12.25 5 12.25ZM17 12.25C16.31 12.25 15.75 11.69 15.75 11C15.75 10.31 16.31 9.75003 17 9.75003C17.69 9.75003 18.25 10.31 18.25 11C18.25 11.69 17.69 12.25 17 12.25ZM20 9.00003H19.22C18.67 8.39003 17.88 8.00003 17 8.00003C16.12 8.00003 15.33 8.39003 14.78 9.00003H7.22C6.67 8.39003 5.89 8.00003 5 8.00003C4.11 8.00003 3.33 8.39003 2.78 9.00003H2V7.00003H20V9.00003Z" fill="#5E6166"/>
</svg>
