<svg width="24" height="24" viewBox="0 0 24 24" fill="none" xmlns="http://www.w3.org/2000/svg">
<path d="M22.5435 12.2066C22.5435 11.3162 22.4693 10.6732 22.3126 10.0054H12.2134V13.9956H18.141C18.029 14.6967 17.7762 15.3678 17.3979 15.9685C17.0196 16.5693 16.5236 17.0872 15.9398 17.4912L15.9233 17.6231L19.1138 20.0964L19.3364 20.1211C21.3728 18.2414 22.5435 15.4796 22.5435 12.2066Z" fill="#4285F4"/>
<path d="M12.2134 22.7257C15.1153 22.7257 17.5556 21.7694 19.3364 20.1206L15.9398 17.4824C15.0329 18.1254 13.8127 18.5624 12.2134 18.5624C10.8524 18.5552 9.52834 18.1196 8.42886 17.3176C7.32937 16.5156 6.51032 15.3877 6.08786 14.094L5.96419 14.1022L2.64175 16.6745L2.59229 16.7981C4.3648 20.3102 8.00053 22.7175 12.2134 22.7175" fill="#34A853"/>
<path d="M6.08986 14.094C5.61525 12.7138 5.60946 11.2155 6.07337 9.83171V9.69156L2.70971 7.07812L2.59429 7.12759C1.84085 8.62806 1.44849 10.2838 1.44849 11.9629C1.44849 13.6419 1.84085 15.2977 2.59429 16.7981L6.08986 14.094Z" fill="#FBBC05"/>
<path d="M12.2134 5.36331C14.2332 5.36331 15.5935 6.2372 16.3685 6.9627L19.4188 4.003C17.5392 2.27171 15.1153 1.19995 12.2134 1.19995C8.00053 1.19995 4.3648 3.61552 2.59229 7.13583L6.07137 9.83171C6.49862 8.53936 7.32004 7.41334 8.42021 6.61188C9.52038 5.81041 10.844 5.37377 12.2051 5.36331" fill="#EB4335"/>
</svg>
