<svg width="111" height="112" viewBox="0 0 111 112" fill="none" xmlns="http://www.w3.org/2000/svg">
<g filter="url(#filter0_d_1320_5639)">
<circle cx="55.5" cy="47.6484" r="15.5" fill="white"/>
</g>
<path d="M61.1192 42.6056C60.323 41.8091 59.2673 41.3248 58.1441 41.2408C57.021 41.1569 55.9051 41.4788 54.9992 42.1481C54.045 41.4383 52.8572 41.1164 51.6752 41.2473C50.4931 41.3782 49.4046 41.9521 48.6287 42.8535C47.8529 43.7548 47.4473 44.9167 47.4938 46.1051C47.5403 47.2934 48.0353 48.4201 48.8792 49.2581L54.4667 54.8456C54.5365 54.9158 54.6194 54.9716 54.7108 55.0097C54.8022 55.0478 54.9002 55.0674 54.9992 55.0674C55.0982 55.0674 55.1963 55.0478 55.2877 55.0097C55.3791 54.9716 55.462 54.9158 55.5317 54.8456L61.1192 49.2581C61.5562 48.8213 61.9029 48.3028 62.1394 47.7321C62.3759 47.1613 62.4976 46.5496 62.4976 45.9318C62.4976 45.314 62.3759 44.7023 62.1394 44.1315C61.9029 43.5608 61.5562 43.0423 61.1192 42.6056ZM60.0617 48.2006L54.9992 53.2556L49.9367 48.2006C49.4906 47.7526 49.1867 47.1828 49.0632 46.5628C48.9396 45.9428 49.0019 45.3001 49.2422 44.7153C49.4825 44.1305 49.8902 43.6297 50.414 43.2758C50.9378 42.9218 51.5545 42.7304 52.1867 42.7256C53.0313 42.7276 53.8406 43.0648 54.4367 43.6631C54.5065 43.7334 54.5894 43.7891 54.6808 43.8272C54.7722 43.8653 54.8702 43.8849 54.9692 43.8849C55.0682 43.8849 55.1663 43.8653 55.2577 43.8272C55.3491 43.7891 55.432 43.7334 55.5017 43.6631C56.1155 43.1312 56.9083 42.8524 57.7199 42.8831C58.5314 42.9137 59.301 43.2516 59.8729 43.8282C60.4447 44.4048 60.7762 45.1772 60.8001 45.9889C60.824 46.8007 60.5386 47.5912 60.0017 48.2006H60.0617Z" fill="#535399"/>
<defs>
<filter id="filter0_d_1320_5639" x="0" y="0.148438" width="111" height="111" filterUnits="userSpaceOnUse" color-interpolation-filters="sRGB">
<feFlood flood-opacity="0" result="BackgroundImageFix"/>
<feColorMatrix in="SourceAlpha" type="matrix" values="0 0 0 0 0 0 0 0 0 0 0 0 0 0 0 0 0 0 127 0" result="hardAlpha"/>
<feOffset dy="8"/>
<feGaussianBlur stdDeviation="20"/>
<feColorMatrix type="matrix" values="0 0 0 0 0.192157 0 0 0 0 0.12549 0 0 0 0 0.541176 0 0 0 0.05 0"/>
<feBlend mode="normal" in2="BackgroundImageFix" result="effect1_dropShadow_1320_5639"/>
<feBlend mode="normal" in="SourceGraphic" in2="effect1_dropShadow_1320_5639" result="shape"/>
</filter>
</defs>
</svg>
