<svg width="20" height="21" viewBox="0 0 20 21" fill="none" xmlns="http://www.w3.org/2000/svg">
<path d="M13 6.5H13.01M1 14.5L6 9.49995C6.928 8.60695 8.072 8.60695 9 9.49995L14 14.5M12 12.5L13 11.5C13.928 10.607 15.072 10.607 16 11.5L19 14.5M1 4.5C1 3.70435 1.31607 2.94129 1.87868 2.37868C2.44129 1.81607 3.20435 1.5 4 1.5H16C16.7956 1.5 17.5587 1.81607 18.1213 2.37868C18.6839 2.94129 19 3.70435 19 4.5V16.5C19 17.2956 18.6839 18.0587 18.1213 18.6213C17.5587 19.1839 16.7956 19.5 16 19.5H4C3.20435 19.5 2.44129 19.1839 1.87868 18.6213C1.31607 18.0587 1 17.2956 1 16.5V4.5Z" stroke="black" stroke-width="2" stroke-linecap="round" stroke-linejoin="round"/>
</svg>
