<svg width="18" height="23" viewBox="0 0 18 23" fill="none" xmlns="http://www.w3.org/2000/svg">
<path d="M9.78756 21.0024L-0.00244141 11.2124V13.2124C-0.00244141 13.7424 0.207559 14.2524 0.587559 14.6224L8.37756 22.4124C9.15756 23.1924 10.4276 23.1924 11.2076 22.4124L17.4176 16.2024C18.1976 15.4224 18.1976 14.1524 17.4176 13.3724L9.78756 21.0024Z" fill="#121316"/>
<path d="M8.37756 17.4124C9.15756 18.1924 10.4276 18.1924 11.2076 17.4124L17.4176 11.2024C18.1976 10.4224 18.1976 9.15244 17.4176 8.37244L9.62756 0.582441C9.24756 0.212441 8.73756 0.00244141 8.20756 0.00244141H1.99756C0.897559 0.00244141 -0.00244141 0.902441 -0.00244141 2.00244V8.21244C-0.00244141 8.74244 0.207559 9.25244 0.587559 9.62244L8.37756 17.4124ZM4.24756 3.00244C4.93756 3.00244 5.49756 3.56244 5.49756 4.25244C5.49756 4.94244 4.93756 5.50244 4.24756 5.50244C3.55756 5.50244 2.99756 4.94244 2.99756 4.25244C2.99756 3.56244 3.55756 3.00244 4.24756 3.00244Z" fill="#121316"/>
</svg>
