<svg width="17" height="17" viewBox="0 0 13 12" fill="none" xmlns="http://www.w3.org/2000/svg">
<g clip-path="url(#clip0_1463_538)">
<path d="M1.94292 8.625H0.405771C0.303852 8.625 0.206107 8.66451 0.134039 8.73483C0.0619716 8.80516 0.0214844 8.90054 0.0214844 9L0.0214844 10.5C0.0214844 10.5995 0.0619716 10.6948 0.134039 10.7652C0.206107 10.8355 0.303852 10.875 0.405771 10.875H1.94292C2.04484 10.875 2.14258 10.8355 2.21465 10.7652C2.28672 10.6948 2.32721 10.5995 2.32721 10.5V9C2.32721 8.90054 2.28672 8.80516 2.21465 8.73483C2.14258 8.66451 2.04484 8.625 1.94292 8.625ZM1.94292 1.125H0.405771C0.303852 1.125 0.206107 1.16451 0.134039 1.23483C0.0619716 1.30516 0.0214844 1.40054 0.0214844 1.5L0.0214844 3C0.0214844 3.09946 0.0619716 3.19484 0.134039 3.26516C0.206107 3.33549 0.303852 3.375 0.405771 3.375H1.94292C2.04484 3.375 2.14258 3.33549 2.21465 3.26516C2.28672 3.19484 2.32721 3.09946 2.32721 3V1.5C2.32721 1.40054 2.28672 1.30516 2.21465 1.23483C2.14258 1.16451 2.04484 1.125 1.94292 1.125ZM1.94292 4.875H0.405771C0.303852 4.875 0.206107 4.91451 0.134039 4.98484C0.0619716 5.05516 0.0214844 5.15054 0.0214844 5.25L0.0214844 6.75C0.0214844 6.84946 0.0619716 6.94484 0.134039 7.01517C0.206107 7.08549 0.303852 7.125 0.405771 7.125H1.94292C2.04484 7.125 2.14258 7.08549 2.21465 7.01517C2.28672 6.94484 2.32721 6.84946 2.32721 6.75V5.25C2.32721 5.15054 2.28672 5.05516 2.21465 4.98484C2.14258 4.91451 2.04484 4.875 1.94292 4.875ZM11.9344 9H4.24864C4.14672 9 4.04898 9.03951 3.97691 9.10983C3.90484 9.18016 3.86435 9.27554 3.86435 9.375V10.125C3.86435 10.2245 3.90484 10.3198 3.97691 10.3902C4.04898 10.4605 4.14672 10.5 4.24864 10.5H11.9344C12.0363 10.5 12.134 10.4605 12.2061 10.3902C12.2782 10.3198 12.3187 10.2245 12.3187 10.125V9.375C12.3187 9.27554 12.2782 9.18016 12.2061 9.10983C12.134 9.03951 12.0363 9 11.9344 9ZM11.9344 1.5H4.24864C4.14672 1.5 4.04898 1.53951 3.97691 1.60984C3.90484 1.68016 3.86435 1.77554 3.86435 1.875V2.625C3.86435 2.72446 3.90484 2.81984 3.97691 2.89016C4.04898 2.96049 4.14672 3 4.24864 3H11.9344C12.0363 3 12.134 2.96049 12.2061 2.89016C12.2782 2.81984 12.3187 2.72446 12.3187 2.625V1.875C12.3187 1.77554 12.2782 1.68016 12.2061 1.60984C12.134 1.53951 12.0363 1.5 11.9344 1.5ZM11.9344 5.25H4.24864C4.14672 5.25 4.04898 5.28951 3.97691 5.35984C3.90484 5.43016 3.86435 5.52554 3.86435 5.625V6.375C3.86435 6.47446 3.90484 6.56984 3.97691 6.64017C4.04898 6.71049 4.14672 6.75 4.24864 6.75H11.9344C12.0363 6.75 12.134 6.71049 12.2061 6.64017C12.2782 6.56984 12.3187 6.47446 12.3187 6.375V5.625C12.3187 5.52554 12.2782 5.43016 12.2061 5.35984C12.134 5.28951 12.0363 5.25 11.9344 5.25Z" fill="#151875"/>
</g>
<defs>
<clipPath id="clip0_1463_538">
<rect width="12.2972" height="12" fill="white" transform="translate(0.0214844)"/>
</clipPath>
</defs>
</svg>
