<svg width="18" height="18" viewBox="0 0 13 12" fill="none" xmlns="http://www.w3.org/2000/svg">
<path d="M5.38463 1.33398H2.65193C2.27462 1.33398 1.96875 1.63246 1.96875 2.00065V4.66732C1.96875 5.03551 2.27462 5.33398 2.65193 5.33398H5.38463C5.76194 5.33398 6.06781 5.03551 6.06781 4.66732V2.00065C6.06781 1.63246 5.76194 1.33398 5.38463 1.33398Z" fill="#151875"/>
<path d="M10.8495 1.33398H8.11677C7.73946 1.33398 7.43359 1.63246 7.43359 2.00065V4.66732C7.43359 5.03551 7.73946 5.33398 8.11677 5.33398H10.8495C11.2268 5.33398 11.5327 5.03551 11.5327 4.66732V2.00065C11.5327 1.63246 11.2268 1.33398 10.8495 1.33398Z" fill="#151875"/>
<path d="M5.38463 6.66602H2.65193C2.27462 6.66602 1.96875 6.96449 1.96875 7.33268V9.99935C1.96875 10.3675 2.27462 10.666 2.65193 10.666H5.38463C5.76194 10.666 6.06781 10.3675 6.06781 9.99935V7.33268C6.06781 6.96449 5.76194 6.66602 5.38463 6.66602Z" fill="#151875"/>
<path d="M10.8495 6.66602H8.11677C7.73946 6.66602 7.43359 6.96449 7.43359 7.33268V9.99935C7.43359 10.3675 7.73946 10.666 8.11677 10.666H10.8495C11.2268 10.666 11.5327 10.3675 11.5327 9.99935V7.33268C11.5327 6.96449 11.2268 6.66602 10.8495 6.66602Z" fill="#151875"/>
</svg>
