<svg width="24" height="24" viewBox="0 0 24 24" fill="none" xmlns="http://www.w3.org/2000/svg">
<path d="M3.83278 3.57642L0.604698 9.61849C0.201857 10.3747 0 11.2046 0 12.0356C0 12.8667 0.201857 13.6965 0.604698 14.4527L3.83278 20.4949C4.42777 21.6109 5.59137 22.308 6.85764 22.308H10.2865V20.5963H10.2853C9.65277 20.5963 9.07097 20.2483 8.77341 19.6904L5.54657 13.647C5.27689 13.1433 5.14248 12.5901 5.14248 12.0356C5.14248 11.4811 5.27689 10.9279 5.54657 10.4243L8.77341 4.38096C9.07097 3.82289 9.65277 3.47499 10.2853 3.47499H10.2865V1.76324H6.85764C5.59137 1.76324 4.42777 2.4604 3.83278 3.57642Z" fill="white"/>
<path d="M23.3953 9.61854L20.1673 3.57646C19.5722 2.46032 18.4088 1.76329 17.1425 1.76329H13.7135V3.47491H13.7148C14.3474 3.47491 14.9292 3.82293 15.2266 4.38088L18.4534 10.4242C18.7232 10.928 18.8574 11.4812 18.8574 12.0356C18.8574 12.5901 18.7232 13.1433 18.4534 13.6471L15.2266 19.6903C14.9292 20.2484 14.3474 20.5963 13.7148 20.5963H13.7135V22.308H17.1425C18.4088 22.308 19.5722 21.611 20.1673 20.4948L23.3953 14.4528C23.798 13.6966 24 12.8667 24 12.0356C24 11.2046 23.798 10.3747 23.3953 9.61854Z" fill="white"/>
</svg>
