<svg width="17" height="17" viewBox="0 0 14 12" fill="none" xmlns="http://www.w3.org/2000/svg">
<path d="M11.6673 0.666992H2.33398C1.80355 0.666992 1.29484 0.877706 0.919771 1.25278C0.544698 1.62785 0.333984 2.13656 0.333984 2.66699V9.33366C0.333984 9.86409 0.544698 10.3728 0.919771 10.7479C1.29484 11.1229 1.80355 11.3337 2.33398 11.3337H11.6673C12.1978 11.3337 12.7065 11.1229 13.0815 10.7479C13.4566 10.3728 13.6673 9.86409 13.6673 9.33366V2.66699C13.6673 2.13656 13.4566 1.62785 13.0815 1.25278C12.7065 0.877706 12.1978 0.666992 11.6673 0.666992ZM2.33398 2.00033H11.6673C11.8441 2.00033 12.0137 2.07056 12.1387 2.19559C12.2637 2.32061 12.334 2.49018 12.334 2.66699L7.00065 5.92033L1.66732 2.66699C1.66732 2.49018 1.73756 2.32061 1.86258 2.19559C1.9876 2.07056 2.15717 2.00033 2.33398 2.00033ZM12.334 9.33366C12.334 9.51047 12.2637 9.68004 12.1387 9.80506C12.0137 9.93009 11.8441 10.0003 11.6673 10.0003H2.33398C2.15717 10.0003 1.9876 9.93009 1.86258 9.80506C1.73756 9.68004 1.66732 9.51047 1.66732 9.33366V4.18699L6.65398 7.23366C6.75533 7.29217 6.87029 7.32297 6.98732 7.32297C7.10434 7.32297 7.21931 7.29217 7.32065 7.23366L12.334 4.18699V9.33366Z" fill="white"/>
</svg>
