<svg width="20" height="20" viewBox="0 0 20 20" fill="none" xmlns="http://www.w3.org/2000/svg">
<path d="M14.25 13.125V13.4357L14.4697 13.6553L15.6894 14.875H4.3107L5.53037 13.6553L5.75004 13.4357V13.125V8.95833C5.75004 6.65461 6.95393 4.88962 8.92353 4.42133L9.50004 4.28425V3.69167V3.125C9.50004 2.84755 9.72259 2.625 10 2.625C10.2775 2.625 10.5 2.84755 10.5 3.125V3.69167V4.28473L11.0771 4.42146C13.0528 4.88957 14.25 6.66083 14.25 8.95833V13.125ZM13.3334 14.7083H14.0834V13.9583V8.95833C14.0834 7.77785 13.7241 6.66009 13.0177 5.82423C12.3011 4.97627 11.2581 4.45833 10 4.45833C8.74198 4.45833 7.69901 4.97627 6.98241 5.82423C6.27603 6.66009 5.91671 7.77785 5.91671 8.95833V13.9583V14.7083H6.66671H13.3334ZM10.5241 17.2083C10.3751 17.3132 10.1942 17.375 10 17.375C9.80593 17.375 9.62499 17.3132 9.47601 17.2083H10.5241Z" fill="#121316" stroke="white" stroke-width="1.5"/>
</svg>
