<svg width="194" height="32" viewBox="0 0 194 32" fill="none" xmlns="http://www.w3.org/2000/svg">
<path d="M56.4581 18.1169C56.4581 20.1941 54.7741 21.878 52.697 21.878H47.057V12.0089H52.697C54.7741 12.0089 56.4581 13.6928 56.4581 15.77V18.1169ZM61.135 16.0002C60.927 11.5197 57.2671 7.94035 52.75 7.86434L42.3511 7.86133V32H47.057V26.0225H52.75C57.2701 25.9469 60.9322 22.3623 61.1354 17.8776C61.1414 17.7474 61.164 17.3707 61.164 16.9421C61.164 16.5451 61.1414 16.1335 61.135 16.0002Z" fill="black"/>
<path fillRule="evenodd" clipRule="evenodd" d="M69.164 2.82335C69.164 4.38273 67.9001 5.64708 66.3407 5.64708C64.7813 5.64708 63.5173 4.38273 63.5173 2.82335C63.5173 1.26398 64.7813 0 66.3407 0C67.9001 0 69.164 1.26398 69.164 2.82335ZM68.6936 26.0247H63.9876V7.86312H68.6936V26.0247Z" fill="black"/>
<path d="M82.5012 7.86357H72.459V26.0229H77.1649V12.0088H84.8565V26.0251H89.5624V14.9244C89.5624 11.0248 86.4008 7.86357 82.5012 7.86357Z" fill="black"/>
<path d="M97.1599 15.0966C97.4335 12.6066 99.0681 11.2836 101.622 11.2173C104.18 11.2836 105.739 12.5261 105.916 15.0966H97.1599ZM110.667 16.9408C110.667 16.3015 110.624 15.6851 110.535 15.0966C109.845 10.3052 106.402 7.29895 101.525 7.29895C96.0506 7.29895 92.3855 11.0886 92.3855 16.9408C92.3855 22.793 96.0506 26.5823 101.525 26.5823C105.412 26.5823 108.593 24.773 109.988 21.5719L105.844 20.0671C105.185 21.6968 103.781 22.4577 101.622 22.4577C98.9944 22.3915 97.4561 20.9198 97.2006 18.3406H110.593C110.644 17.8883 110.667 17.4202 110.667 16.9408Z" fill="black"/>
<path d="M122.662 22.0675C119.352 21.9933 117.804 20.3169 117.804 16.8471C117.804 13.4006 119.336 11.6851 122.662 11.6072C124.81 11.6576 126.206 12.3906 126.931 13.8292L131.286 12.2465C129.785 9.14281 126.685 7.29895 122.658 7.29895C116.884 7.29895 113.02 11.0886 113.02 16.9404C113.02 22.7926 116.884 26.5823 122.658 26.5823C126.685 26.5823 129.785 24.7384 131.286 21.6347L126.849 20.0208C126.097 21.354 124.721 22.0208 122.662 22.0675Z" fill="black"/>
<path d="M142.494 22.0681C139.186 21.9932 137.637 20.3176 137.637 16.847C137.637 13.399 139.168 11.6831 142.494 11.6067C145.82 11.6831 147.352 13.399 147.352 16.847C147.352 20.3176 145.802 21.9932 142.494 22.0681ZM142.492 7.29882C136.718 7.29882 132.855 11.0885 132.855 16.9407C132.855 22.7928 136.718 26.5825 142.492 26.5825C148.267 26.5825 152.131 22.7928 152.131 16.9407C152.131 11.0885 148.267 7.29882 142.492 7.29882Z" fill="black"/>
<path d="M164.996 7.85868H154.954V26.018H159.66V12.004H167.352V26.0203H172.058V14.9199C172.058 11.02 168.896 7.85868 164.996 7.85868Z" fill="black"/>
<path d="M179.655 15.0966C179.929 12.6066 181.564 11.2836 184.117 11.2173C186.675 11.2836 188.234 12.5261 188.411 15.0966H179.655ZM193.162 16.9408C193.162 16.3015 193.12 15.6851 193.03 15.0966C192.34 10.3052 188.897 7.29895 184.02 7.29895C178.546 7.29895 174.881 11.0886 174.881 16.9408C174.881 22.793 178.546 26.5823 184.02 26.5823C187.907 26.5823 191.088 24.773 192.484 21.5719L188.339 20.0671C187.68 21.6968 186.276 22.4577 184.117 22.4577C181.49 22.3915 179.951 20.9198 179.696 18.3406H193.088C193.139 17.8883 193.162 17.4202 193.162 16.9408Z" fill="black"/>
<path d="M5.26025 5.31679L0.83011 13.6198C0.277331 14.6591 0 15.7993 0 16.9413C0 18.0834 0.277331 19.224 0.83011 20.2629L5.26025 28.5659C6.07681 30.0997 7.67382 31.0574 9.41193 31.0574H14.1179V28.7051H14.116C13.2479 28.7051 12.4494 28.2272 12.0411 27.4603L7.61248 19.1558C7.2422 18.4635 7.05782 17.7033 7.05782 16.9413C7.05782 16.1793 7.2422 15.4192 7.61248 14.7268L12.0411 6.42235C12.4494 5.65546 13.2479 5.17718 14.116 5.17718H14.1179V2.82495H9.41193C7.67382 2.82495 6.07681 3.783 5.26025 5.31679Z" fill="black"/>
<path d="M32.1089 13.6198L27.6788 5.31679C26.8618 3.783 25.2652 2.82495 23.5271 2.82495H18.8211V5.17718H18.823C19.6911 5.17718 20.4896 5.65545 20.8979 6.42235L25.3265 14.7268C25.6964 15.4192 25.8808 16.1793 25.8808 16.9413C25.8808 17.7033 25.6964 18.4635 25.3265 19.1558L20.8979 27.4603C20.4896 28.2272 19.6911 28.7051 18.823 28.7051H18.8211V31.0574H23.5271C25.2652 31.0574 26.8618 30.0997 27.6788 28.5659L32.1089 20.2629C32.6617 19.224 32.939 18.0834 32.939 16.9413C32.939 15.7993 32.6617 14.6591 32.1089 13.6198Z" fill="black"/>
</svg>
