<svg width="17" height="17" viewBox="0 0 14 14" fill="none" xmlns="http://www.w3.org/2000/svg">
<path d="M12.4408 2.07353C11.733 1.36554 10.7946 0.935086 9.79632 0.860455C8.79799 0.785825 7.80603 1.07198 7.00083 1.66687C6.15261 1.03596 5.09683 0.749876 4.04611 0.866226C2.9954 0.982577 2.02779 1.49272 1.33815 2.29392C0.648506 3.09513 0.28805 4.12788 0.329369 5.18421C0.370688 6.24054 0.810713 7.24198 1.56083 7.98687L6.5275 12.9535C6.58948 13.016 6.66321 13.0656 6.74445 13.0995C6.82569 13.1333 6.91283 13.1507 7.00083 13.1507C7.08884 13.1507 7.17598 13.1333 7.25722 13.0995C7.33846 13.0656 7.41219 13.016 7.47417 12.9535L12.4408 7.98687C12.8293 7.59868 13.1374 7.13776 13.3476 6.63045C13.5579 6.12313 13.6661 5.57936 13.6661 5.0302C13.6661 4.48105 13.5579 3.93728 13.3476 3.42996C13.1374 2.92264 12.8293 2.46172 12.4408 2.07353ZM11.5008 7.04687L7.00083 11.5402L2.50083 7.04687C2.10428 6.64867 1.83415 6.14223 1.72432 5.59109C1.61449 5.03996 1.66986 4.46866 1.88347 3.94886C2.09708 3.42907 2.45943 2.98393 2.92507 2.66928C3.3907 2.35464 3.93888 2.18449 4.50083 2.1802C5.25158 2.18204 5.9709 2.48176 6.50083 3.01353C6.56281 3.07602 6.63654 3.12562 6.71778 3.15946C6.79902 3.19331 6.88616 3.21073 6.97417 3.21073C7.06218 3.21073 7.14931 3.19331 7.23055 3.15946C7.31179 3.12562 7.38553 3.07602 7.4475 3.01353C7.99305 2.54079 8.69783 2.29296 9.4192 2.32022C10.1406 2.34747 10.8246 2.64777 11.333 3.16033C11.8413 3.67289 12.1359 4.35943 12.1572 5.08099C12.1784 5.80256 11.9248 6.50526 11.4475 7.04687H11.5008Z" fill="white"/>
</svg>
