<svg width="20" height="21" viewBox="0 0 20 21" fill="none" xmlns="http://www.w3.org/2000/svg">
<path d="M17.5 10.5C17.5 10.27 17.49 10.05 17.47 9.82L19.33 8.41C19.73 8.11 19.84 7.55 19.59 7.11L17.72 3.88C17.47 3.44 16.93 3.26 16.47 3.46L14.32 4.37C13.95 4.11 13.56 3.88 13.15 3.69L12.86 1.38C12.8 0.88 12.37 0.5 11.87 0.5H8.14003C7.63003 0.5 7.20003 0.88 7.14003 1.38L6.85003 3.69C6.44003 3.88 6.05003 4.11 5.68003 4.37L3.53003 3.46C3.07003 3.26 2.53003 3.44 2.28003 3.88L0.410031 7.12C0.160031 7.56 0.270031 8.11 0.670031 8.42L2.53003 9.83C2.51003 10.05 2.50003 10.27 2.50003 10.5C2.50003 10.73 2.51003 10.95 2.53003 11.18L0.670031 12.59C0.270031 12.89 0.160031 13.45 0.410031 13.89L2.28003 17.12C2.53003 17.56 3.07003 17.74 3.53003 17.54L5.68003 16.63C6.05003 16.89 6.44003 17.12 6.85003 17.31L7.14003 19.62C7.20003 20.12 7.63003 20.5 8.13003 20.5H11.86C12.36 20.5 12.79 20.12 12.85 19.62L13.14 17.31C13.55 17.12 13.94 16.89 14.31 16.63L16.46 17.54C16.92 17.74 17.46 17.56 17.71 17.12L19.58 13.89C19.83 13.45 19.72 12.9 19.32 12.59L17.46 11.18C17.49 10.95 17.5 10.73 17.5 10.5ZM10.04 14C8.11003 14 6.54003 12.43 6.54003 10.5C6.54003 8.57 8.11003 7 10.04 7C11.97 7 13.54 8.57 13.54 10.5C13.54 12.43 11.97 14 10.04 14Z" fill="#121316"/>
</svg>
