<svg width="20" height="20" viewBox="0 0 4 4" fill="none" xmlns="http://www.w3.org/2000/svg">
<path d="M4 2C4 2.53043 3.78929 3.03914 3.41421 3.41421C3.03914 3.78929 2.53043 4 2 4C1.46957 4 0.96086 3.78929 0.585787 3.41421C0.210714 3.03914 0 2.53043 0 2C0 1.46957 0.210714 0.96086 0.585787 0.585787C0.96086 0.210714 1.46957 0 2 0C2.53043 0 3.03914 0.210714 3.41421 0.585787C3.78929 0.96086 4 1.46957 4 2ZM2.5 2C2.5 1.86739 2.44732 1.74021 2.35355 1.64645C2.25979 1.55268 2.13261 1.5 2 1.5C1.86739 1.5 1.74021 1.55268 1.64645 1.64645C1.55268 1.74021 1.5 1.86739 1.5 2C1.5 2.13261 1.55268 2.25979 1.64645 2.35355C1.74021 2.44732 1.86739 2.5 2 2.5C2.13261 2.5 2.25979 2.44732 2.35355 2.35355C2.44732 2.25979 2.5 2.13261 2.5 2Z" fill="white"/>
</svg>
